<mxfile host="app.diagrams.net" modified="2020-10-16T18:24:02.140Z" agent="5.0 (Windows NT 10.0; Win64; x64) AppleWebKit/537.36 (KHTML, like Gecko) Chrome/81.0.4044.138 Safari/537.36 Edg/81.0.416.88" etag="UaLNyQeSojh7NzZJaQoa" version="13.8.0" type="github">
  <diagram id="pjiQfQ-o78UUlYZnu1dF" name="Page-1">
    <mxGraphModel dx="1038" dy="532" grid="1" gridSize="10" guides="1" tooltips="1" connect="1" arrows="1" fold="1" page="1" pageScale="1" pageWidth="850" pageHeight="1100" math="0" shadow="0">
      <root>
        <mxCell id="0" />
        <mxCell id="1" parent="0" />
        <mxCell id="uden-AnZ45sdJE5wdkS_-1" value="Students" style="shape=table;startSize=30;container=1;collapsible=1;childLayout=tableLayout;fixedRows=1;rowLines=0;fontStyle=1;align=center;resizeLast=1;" vertex="1" parent="1">
          <mxGeometry x="110" y="140" width="180" height="190" as="geometry" />
        </mxCell>
        <mxCell id="uden-AnZ45sdJE5wdkS_-2" value="" style="shape=partialRectangle;collapsible=0;dropTarget=0;pointerEvents=0;fillColor=none;top=0;left=0;bottom=1;right=0;points=[[0,0.5],[1,0.5]];portConstraint=eastwest;" vertex="1" parent="uden-AnZ45sdJE5wdkS_-1">
          <mxGeometry y="30" width="180" height="30" as="geometry" />
        </mxCell>
        <mxCell id="uden-AnZ45sdJE5wdkS_-3" value="PK" style="shape=partialRectangle;connectable=0;fillColor=none;top=0;left=0;bottom=0;right=0;fontStyle=1;overflow=hidden;" vertex="1" parent="uden-AnZ45sdJE5wdkS_-2">
          <mxGeometry width="30" height="30" as="geometry" />
        </mxCell>
        <mxCell id="uden-AnZ45sdJE5wdkS_-4" value="StudentID" style="shape=partialRectangle;connectable=0;fillColor=none;top=0;left=0;bottom=0;right=0;align=left;spacingLeft=6;fontStyle=5;overflow=hidden;" vertex="1" parent="uden-AnZ45sdJE5wdkS_-2">
          <mxGeometry x="30" width="150" height="30" as="geometry" />
        </mxCell>
        <mxCell id="uden-AnZ45sdJE5wdkS_-5" value="" style="shape=partialRectangle;collapsible=0;dropTarget=0;pointerEvents=0;fillColor=none;top=0;left=0;bottom=0;right=0;points=[[0,0.5],[1,0.5]];portConstraint=eastwest;" vertex="1" parent="uden-AnZ45sdJE5wdkS_-1">
          <mxGeometry y="60" width="180" height="30" as="geometry" />
        </mxCell>
        <mxCell id="uden-AnZ45sdJE5wdkS_-6" value="" style="shape=partialRectangle;connectable=0;fillColor=none;top=0;left=0;bottom=0;right=0;editable=1;overflow=hidden;" vertex="1" parent="uden-AnZ45sdJE5wdkS_-5">
          <mxGeometry width="30" height="30" as="geometry" />
        </mxCell>
        <mxCell id="uden-AnZ45sdJE5wdkS_-7" value="First Name" style="shape=partialRectangle;connectable=0;fillColor=none;top=0;left=0;bottom=0;right=0;align=left;spacingLeft=6;overflow=hidden;" vertex="1" parent="uden-AnZ45sdJE5wdkS_-5">
          <mxGeometry x="30" width="150" height="30" as="geometry" />
        </mxCell>
        <mxCell id="uden-AnZ45sdJE5wdkS_-8" value="" style="shape=partialRectangle;collapsible=0;dropTarget=0;pointerEvents=0;fillColor=none;top=0;left=0;bottom=0;right=0;points=[[0,0.5],[1,0.5]];portConstraint=eastwest;" vertex="1" parent="uden-AnZ45sdJE5wdkS_-1">
          <mxGeometry y="90" width="180" height="30" as="geometry" />
        </mxCell>
        <mxCell id="uden-AnZ45sdJE5wdkS_-9" value="" style="shape=partialRectangle;connectable=0;fillColor=none;top=0;left=0;bottom=0;right=0;editable=1;overflow=hidden;" vertex="1" parent="uden-AnZ45sdJE5wdkS_-8">
          <mxGeometry width="30" height="30" as="geometry" />
        </mxCell>
        <mxCell id="uden-AnZ45sdJE5wdkS_-10" value="Last Name" style="shape=partialRectangle;connectable=0;fillColor=none;top=0;left=0;bottom=0;right=0;align=left;spacingLeft=6;overflow=hidden;" vertex="1" parent="uden-AnZ45sdJE5wdkS_-8">
          <mxGeometry x="30" width="150" height="30" as="geometry" />
        </mxCell>
        <mxCell id="uden-AnZ45sdJE5wdkS_-11" value="" style="shape=partialRectangle;collapsible=0;dropTarget=0;pointerEvents=0;fillColor=none;top=0;left=0;bottom=0;right=0;points=[[0,0.5],[1,0.5]];portConstraint=eastwest;" vertex="1" parent="uden-AnZ45sdJE5wdkS_-1">
          <mxGeometry y="120" width="180" height="30" as="geometry" />
        </mxCell>
        <mxCell id="uden-AnZ45sdJE5wdkS_-12" value="" style="shape=partialRectangle;connectable=0;fillColor=none;top=0;left=0;bottom=0;right=0;editable=1;overflow=hidden;" vertex="1" parent="uden-AnZ45sdJE5wdkS_-11">
          <mxGeometry width="30" height="30" as="geometry" />
        </mxCell>
        <mxCell id="uden-AnZ45sdJE5wdkS_-13" value="E-mail" style="shape=partialRectangle;connectable=0;fillColor=none;top=0;left=0;bottom=0;right=0;align=left;spacingLeft=6;overflow=hidden;" vertex="1" parent="uden-AnZ45sdJE5wdkS_-11">
          <mxGeometry x="30" width="150" height="30" as="geometry" />
        </mxCell>
        <mxCell id="uden-AnZ45sdJE5wdkS_-34" value="" style="shape=partialRectangle;collapsible=0;dropTarget=0;pointerEvents=0;fillColor=none;top=0;left=0;bottom=0;right=0;points=[[0,0.5],[1,0.5]];portConstraint=eastwest;" vertex="1" parent="uden-AnZ45sdJE5wdkS_-1">
          <mxGeometry y="150" width="180" height="30" as="geometry" />
        </mxCell>
        <mxCell id="uden-AnZ45sdJE5wdkS_-35" value="FK" style="shape=partialRectangle;connectable=0;fillColor=none;top=0;left=0;bottom=0;right=0;editable=1;overflow=hidden;" vertex="1" parent="uden-AnZ45sdJE5wdkS_-34">
          <mxGeometry width="30" height="30" as="geometry" />
        </mxCell>
        <mxCell id="uden-AnZ45sdJE5wdkS_-36" value="Class" style="shape=partialRectangle;connectable=0;fillColor=none;top=0;left=0;bottom=0;right=0;align=left;spacingLeft=6;overflow=hidden;" vertex="1" parent="uden-AnZ45sdJE5wdkS_-34">
          <mxGeometry x="30" width="150" height="30" as="geometry" />
        </mxCell>
        <mxCell id="uden-AnZ45sdJE5wdkS_-14" value="Classes" style="shape=table;startSize=30;container=1;collapsible=1;childLayout=tableLayout;fixedRows=1;rowLines=0;fontStyle=1;align=center;resizeLast=1;" vertex="1" parent="1">
          <mxGeometry x="560" y="140" width="180" height="190" as="geometry" />
        </mxCell>
        <mxCell id="uden-AnZ45sdJE5wdkS_-15" value="" style="shape=partialRectangle;collapsible=0;dropTarget=0;pointerEvents=0;fillColor=none;top=0;left=0;bottom=1;right=0;points=[[0,0.5],[1,0.5]];portConstraint=eastwest;" vertex="1" parent="uden-AnZ45sdJE5wdkS_-14">
          <mxGeometry y="30" width="180" height="30" as="geometry" />
        </mxCell>
        <mxCell id="uden-AnZ45sdJE5wdkS_-16" value="PK" style="shape=partialRectangle;connectable=0;fillColor=none;top=0;left=0;bottom=0;right=0;fontStyle=1;overflow=hidden;" vertex="1" parent="uden-AnZ45sdJE5wdkS_-15">
          <mxGeometry width="30" height="30" as="geometry" />
        </mxCell>
        <mxCell id="uden-AnZ45sdJE5wdkS_-17" value="ClassID" style="shape=partialRectangle;connectable=0;fillColor=none;top=0;left=0;bottom=0;right=0;align=left;spacingLeft=6;fontStyle=5;overflow=hidden;" vertex="1" parent="uden-AnZ45sdJE5wdkS_-15">
          <mxGeometry x="30" width="150" height="30" as="geometry" />
        </mxCell>
        <mxCell id="uden-AnZ45sdJE5wdkS_-18" value="" style="shape=partialRectangle;collapsible=0;dropTarget=0;pointerEvents=0;fillColor=none;top=0;left=0;bottom=0;right=0;points=[[0,0.5],[1,0.5]];portConstraint=eastwest;" vertex="1" parent="uden-AnZ45sdJE5wdkS_-14">
          <mxGeometry y="60" width="180" height="30" as="geometry" />
        </mxCell>
        <mxCell id="uden-AnZ45sdJE5wdkS_-19" value="" style="shape=partialRectangle;connectable=0;fillColor=none;top=0;left=0;bottom=0;right=0;editable=1;overflow=hidden;" vertex="1" parent="uden-AnZ45sdJE5wdkS_-18">
          <mxGeometry width="30" height="30" as="geometry" />
        </mxCell>
        <mxCell id="uden-AnZ45sdJE5wdkS_-20" value="Subject" style="shape=partialRectangle;connectable=0;fillColor=none;top=0;left=0;bottom=0;right=0;align=left;spacingLeft=6;overflow=hidden;" vertex="1" parent="uden-AnZ45sdJE5wdkS_-18">
          <mxGeometry x="30" width="150" height="30" as="geometry" />
        </mxCell>
        <mxCell id="uden-AnZ45sdJE5wdkS_-21" value="" style="shape=partialRectangle;collapsible=0;dropTarget=0;pointerEvents=0;fillColor=none;top=0;left=0;bottom=0;right=0;points=[[0,0.5],[1,0.5]];portConstraint=eastwest;" vertex="1" parent="uden-AnZ45sdJE5wdkS_-14">
          <mxGeometry y="90" width="180" height="30" as="geometry" />
        </mxCell>
        <mxCell id="uden-AnZ45sdJE5wdkS_-22" value="" style="shape=partialRectangle;connectable=0;fillColor=none;top=0;left=0;bottom=0;right=0;editable=1;overflow=hidden;" vertex="1" parent="uden-AnZ45sdJE5wdkS_-21">
          <mxGeometry width="30" height="30" as="geometry" />
        </mxCell>
        <mxCell id="uden-AnZ45sdJE5wdkS_-23" value="Classroom" style="shape=partialRectangle;connectable=0;fillColor=none;top=0;left=0;bottom=0;right=0;align=left;spacingLeft=6;overflow=hidden;" vertex="1" parent="uden-AnZ45sdJE5wdkS_-21">
          <mxGeometry x="30" width="150" height="30" as="geometry" />
        </mxCell>
        <mxCell id="uden-AnZ45sdJE5wdkS_-24" value="" style="shape=partialRectangle;collapsible=0;dropTarget=0;pointerEvents=0;fillColor=none;top=0;left=0;bottom=0;right=0;points=[[0,0.5],[1,0.5]];portConstraint=eastwest;" vertex="1" parent="uden-AnZ45sdJE5wdkS_-14">
          <mxGeometry y="120" width="180" height="30" as="geometry" />
        </mxCell>
        <mxCell id="uden-AnZ45sdJE5wdkS_-25" value="" style="shape=partialRectangle;connectable=0;fillColor=none;top=0;left=0;bottom=0;right=0;editable=1;overflow=hidden;" vertex="1" parent="uden-AnZ45sdJE5wdkS_-24">
          <mxGeometry width="30" height="30" as="geometry" />
        </mxCell>
        <mxCell id="uden-AnZ45sdJE5wdkS_-26" value="Building" style="shape=partialRectangle;connectable=0;fillColor=none;top=0;left=0;bottom=0;right=0;align=left;spacingLeft=6;overflow=hidden;" vertex="1" parent="uden-AnZ45sdJE5wdkS_-24">
          <mxGeometry x="30" width="150" height="30" as="geometry" />
        </mxCell>
        <mxCell id="uden-AnZ45sdJE5wdkS_-30" value="" style="shape=partialRectangle;collapsible=0;dropTarget=0;pointerEvents=0;fillColor=none;top=0;left=0;bottom=0;right=0;points=[[0,0.5],[1,0.5]];portConstraint=eastwest;" vertex="1" parent="uden-AnZ45sdJE5wdkS_-14">
          <mxGeometry y="150" width="180" height="30" as="geometry" />
        </mxCell>
        <mxCell id="uden-AnZ45sdJE5wdkS_-31" value="" style="shape=partialRectangle;connectable=0;fillColor=none;top=0;left=0;bottom=0;right=0;editable=1;overflow=hidden;" vertex="1" parent="uden-AnZ45sdJE5wdkS_-30">
          <mxGeometry width="30" height="30" as="geometry" />
        </mxCell>
        <mxCell id="uden-AnZ45sdJE5wdkS_-32" value="Class Size" style="shape=partialRectangle;connectable=0;fillColor=none;top=0;left=0;bottom=0;right=0;align=left;spacingLeft=6;overflow=hidden;" vertex="1" parent="uden-AnZ45sdJE5wdkS_-30">
          <mxGeometry x="30" width="150" height="30" as="geometry" />
        </mxCell>
        <mxCell id="uden-AnZ45sdJE5wdkS_-37" style="edgeStyle=orthogonalEdgeStyle;rounded=0;orthogonalLoop=1;jettySize=auto;html=1;entryX=0;entryY=0.5;entryDx=0;entryDy=0;startArrow=ERmandOne;startFill=0;endArrow=ERzeroToMany;endFill=1;" edge="1" parent="1" source="uden-AnZ45sdJE5wdkS_-34" target="uden-AnZ45sdJE5wdkS_-15">
          <mxGeometry relative="1" as="geometry" />
        </mxCell>
        <mxCell id="uden-AnZ45sdJE5wdkS_-38" value="Take" style="edgeLabel;html=1;align=center;verticalAlign=middle;resizable=0;points=[];" vertex="1" connectable="0" parent="uden-AnZ45sdJE5wdkS_-37">
          <mxGeometry x="-0.3077" y="44" relative="1" as="geometry">
            <mxPoint x="46" y="-44" as="offset" />
          </mxGeometry>
        </mxCell>
        <mxCell id="uden-AnZ45sdJE5wdkS_-39" value="(1,1)" style="edgeLabel;html=1;align=center;verticalAlign=middle;resizable=0;points=[];" vertex="1" connectable="0" parent="uden-AnZ45sdJE5wdkS_-37">
          <mxGeometry x="-0.8472" relative="1" as="geometry">
            <mxPoint as="offset" />
          </mxGeometry>
        </mxCell>
        <mxCell id="uden-AnZ45sdJE5wdkS_-40" value="(0,7)" style="edgeLabel;html=1;align=center;verticalAlign=middle;resizable=0;points=[];" vertex="1" connectable="0" parent="uden-AnZ45sdJE5wdkS_-37">
          <mxGeometry x="0.8195" relative="1" as="geometry">
            <mxPoint as="offset" />
          </mxGeometry>
        </mxCell>
      </root>
    </mxGraphModel>
  </diagram>
</mxfile>
